{"title":"Geordie Shore S10E08 1080P WEB-DL ( FINAL )","uid":11972576,"size":1618277374,"categoryP":"video","categoryS":"hd___tv_shows","magnet":"?xt=urn:btih:b7a554a1c75ce8d17c991fc26645d490d98de8dd&amp;dn=Geordie+Shore+S10E08+1080P+WEB-DL+%28+FINAL+%29&amp;tr=udp%3A%2F%2Ftracker.openbittorrent.com%3A80&amp;tr=udp%3A%2F%2Fopen.demonii.com%3A1337&amp;tr=udp%3A%2F%2Ftracker.coppersurfer.tk%3A6969&amp;tr=udp%3A%2F%2Fexodus.desync.com%3A6969","seeders":0,"leechers":0,"uploader":"jmanwf","files":2,"time":1432895230,"description":"Scotty T is back to 'jump start' the final episode with a dare-devil activity for his Geordie crew. Meanwhile, tensions run high as Holly waits to hear Kyle's decision.\n\n\n\nVideo\nID : 2\nFormat : AVC\nFormat/Info : Advanced Video Codec\nFormat profile : High@L4\nFormat settings, CABAC : Yes\nFormat settings, ReFrames : 4 frames\nCodec ID : avc1\nCodec ID/Info : Advanced Video Coding\nDuration : 42mn 36s\nBit rate : 4 934 Kbps\nWidth : 1 920 pixels\nHeight : 1 080 pixels\nDisplay aspect ratio : 16:9\nFrame rate mode : Constant\nFrame rate : 25.000 fps\nColor space : YUV\nChroma subsampling : 4:2:0\nBit depth : 8 bits\nScan type : Progressive\nBits/(Pixel*Frame) : 0.095\nStream size : 1.47 GiB (97%)\nLanguage : English\nEncoded date : UTC 2015-05-27 07:08:58\nTagged date : UTC 2015-05-27 07:11:40\nColor range : Limited\nColor primaries : BT.709\nTransfer characteristics : BT.709\nMatrix coefficients : BT.709\n\nAudio\nID : 1\nFormat : AAC\nFormat/Info : Advanced Audio Codec\nFormat profile : LC\nCodec ID : 40\nDuration : 42mn 36s\nDuration_LastFrame : -7ms\nBit rate mode : Variable\nBit rate : 125 Kbps\nMaximum bit rate : 190 Kbps\nChannel(s) : 2 channels\nChannel positions : Front: L R\nSampling rate : 48.0 KHz\nCompression mode : Lossy\nStream size : 38.2 MiB (2%)\nLanguage : English\nEncoded date : UTC 2015-05-27 07:08:58\nTagged date : UTC 2015-05-27 07:11:40\n\nText\nID : 3-CC1\nFormat : EIA-608\nMuxing mode : Final Cut\nCodec ID : c608\nDuration : 42mn 34s\nBit rate mode : Constant\nStream size : 0.00 Byte (0%)\nLanguage : English\nEncoded date : UTC 2015-05-27 07:08:58\nTagged date : UTC 2015-05-27 07:10:34\n\n\n &lt;a href=&quot;\nhttps://itunes.apple.com/au/tv-season/geordie-shore-season-10/id979550691&quot; rel=&quot;nofollow&quot; target=&quot;_NEW&quot;&gt;\nhttps://itunes.apple.com/au/tv-season/geordie-shore-season-10/id979550691&lt;/a&gt;","torrent":{"xt":"urn:btih:b7a554a1c75ce8d17c991fc26645d490d98de8dd","amp;dn":"Geordie+Shore+S10E08+1080P+WEB-DL+%28+FINAL+%29","amp;tr":["udp%3A%2F%2Ftracker.openbittorrent.com%3A80","udp%3A%2F%2Fopen.demonii.com%3A1337","udp%3A%2F%2Ftracker.coppersurfer.tk%3A6969","udp%3A%2F%2Fexodus.desync.com%3A6969"],"infoHash":"b7a554a1c75ce8d17c991fc26645d490d98de8dd","infoHashBuffer":{"type":"Buffer","data":[183,165,84,161,199,92,232,209,124,153,31,194,102,69,212,144,217,141,232,221]},"announce":[],"urlList":[]}}